<?xml version="1.0" standalone="no"?>
<!DOCTYPE svg PUBLIC "-//W3C//DTD SVG 20010904//EN"
 "http://www.w3.org/TR/2001/REC-SVG-20010904/DTD/svg10.dtd">
<svg version="1.0" xmlns="http://www.w3.org/2000/svg"
 width="87.000000pt" height="84.000000pt" viewBox="0 0 87.000000 84.000000"
 preserveAspectRatio="xMidYMid meet">
<g transform="translate(0.000000,84.000000) scale(0.100000,-0.100000)"
fill="#1d73a4" stroke="none">
<path d="M276 785 c-15 -8 -32 -15 -37 -15 -44 0 -189 -157 -189 -204 0 -12
-6 -28 -12 -35 l-13 -12 0 -114 0 -114 12 -13 c7 -6 13 -22 13 -34 0 -12 7
-27 15 -34 8 -7 15 -18 15 -24 2 -45 171 -166 233 -166 14 0 29 -4 32 -10 l6
-10 74 0 74 0 6 10 c3 6 18 10 33 10 98 0 223 120 273 260 l19 54 0 81 0 80
-15 29 c-8 15 -15 35 -15 43 0 19 -61 111 -94 142 -28 26 -49 39 -115 70 l-44
21 -121 0 -121 0 -29 -15z m178 -130 c16 -19 37 -35 47 -35 23 0 119 -96 119
-119 0 -10 18 -34 40 -54 49 -43 49 -48 5 -78 -19 -13 -39 -35 -44 -49 -5 -14
-27 -46 -51 -72 l-42 -48 -18 0 -19 0 -32 -40 c-39 -49 -40 -49 -86 -5 -20 19
-46 38 -58 41 -32 11 -83 53 -105 89 -36 58 -20 74 32 30 l30 -25 36 0 37 0
28 18 c99 66 53 222 -66 222 l-26 0 -36 -31 -36 -32 -11 11 c-26 26 74 142
124 142 8 0 29 16 47 35 17 19 37 35 44 35 7 0 25 -16 41 -35z"/>
</g>
</svg>
