<?xml version="1.0" standalone="no"?>
<!DOCTYPE svg PUBLIC "-//W3C//DTD SVG 20010904//EN"
 "http://www.w3.org/TR/2001/REC-SVG-20010904/DTD/svg10.dtd">
<svg version="1.0" xmlns="http://www.w3.org/2000/svg"
 width="28.000000pt" height="28.000000pt" viewBox="0 0 28.000000 28.000000"
 preserveAspectRatio="xMidYMid meet">
<g transform="translate(0.000000,28.000000) scale(0.100000,-0.100000)"
fill="#458f2c" stroke="none">
<path d="M54 237 c-29 -26 -37 -42 -41 -80 -11 -91 38 -148 127 -149 102 0
157 72 130 171 -16 60 -59 91 -126 91 -47 0 -59 -4 -90 -33z m122 -13 c31 -21
54 -64 54 -102 0 -29 -29 -63 -64 -76 -16 -6 -18 -3 -12 26 3 17 14 40 23 50
13 14 14 25 7 45 -14 40 -39 51 -63 29 -24 -22 -27 -53 -7 -75 16 -18 25 -65
13 -68 -29 -10 -67 29 -67 69 0 37 23 82 52 102 28 20 33 20 64 0z m-8 -70 c2
-14 -3 -23 -17 -27 -25 -6 -31 0 -31 30 0 20 5 24 23 21 13 -2 23 -11 25 -24z"/>
</g>
</svg>
