<svg version="1.0" xmlns="http://www.w3.org/2000/svg" width="28.000000pt" height="28.000000pt" viewBox="0 0 28.000000 28.000000" preserveAspectRatio="xMidYMid meet" style="width: 100px; height: auto;"> <g transform="translate(0.000000,28.000000) scale(0.100000,-0.100000)" fill="#e87400" stroke="none"> <path d="M72 256 c-79 -43 -83 -180 -8 -230 16 -10 46 -16 80 -16 44 0 60 5 85 26 63 53 62 160 -3 209 -37 28 -113 34 -154 11z m118 -118 c0 -11 -41 -78 -48 -78 -4 0 -17 18 -29 41 l-22 41 26 40 27 39 23 -38 c12 -21 23 -41 23 -45z m-90 50 c0 -7 -7 -22 -15 -32 -13 -17 -13 -22 1 -37 10 -11 14 -25 10 -36 -6 -14 -10 -12 -26 15 -24 39 -24 46 -4 77 17 27 34 33 34 13z m123 -20 c17 -30 17 -31 -8 -69 -14 -22 -27 -39 -28 -39 -8 0 0 37 12 58 10 19 10 27 -3 47 -14 20 -12 35 3 35 3 0 14 -14 24 -32z" class=""></path> <path d="M126 154 c-3 -9 -2 -23 4 -32 7 -14 9 -10 10 16 0 35 -5 41 -14 16z"></path> </g> </svg>