<?xml version="1.0" standalone="no"?> <!DOCTYPE svg PUBLIC "-//W3C//DTD SVG 20010904//EN" "http://www.w3.org/TR/2001/REC-SVG-20010904/DTD/svg10.dtd"> <svg version="1.0" xmlns="http://www.w3.org/2000/svg" width="28.000000pt" height="29.000000pt" viewBox="0 0 28.000000 29.000000" preserveAspectRatio="xMidYMid meet"> <g transform="translate(0.000000,29.000000) scale(0.100000,-0.100000)" fill="#813d9c" stroke="none"> <path d="M84 270 c-11 -4 -33 -22 -47 -40 -21 -25 -27 -42 -27 -82 0 -88 50 -138 140 -138 36 0 48 6 81 39 36 35 39 43 39 93 0 62 -21 97 -70 123 -32 16 -83 19 -116 5z m96 -50 c3 -4 15 -12 28 -19 12 -6 22 -21 22 -31 0 -24 -4 -25 -35 -4 -35 23 -71 15 -67 -15 2 -20 0 -22 -13 -11 -34 28 -2 107 38 94 12 -4 24 -10 27 -14z m-93 -29 c-2 -10 0 -26 5 -35 13 -23 -5 -20 -27 4 -15 16 -15 22 -5 35 17 21 33 19 27 -4z m93 -76 c0 -35 -31 -66 -57 -59 -13 4 -21 10 -18 14 3 4 -9 10 -25 14 -24 4 -30 11 -30 31 0 25 1 25 22 11 12 -9 35 -16 50 -16 27 0 33 8 28 39 -1 13 1 13 14 2 9 -8 16 -24 16 -36z m34 13 c11 -16 13 -25 4 -35 -17 -21 -26 -15 -30 22 -5 40 4 45 26 13z"/> </g> </svg>