<?xml version="1.0" standalone="no"?> <!DOCTYPE svg PUBLIC "-//W3C//DTD SVG 20010904//EN" "http://www.w3.org/TR/2001/REC-SVG-20010904/DTD/svg10.dtd"> <svg version="1.0" xmlns="http://www.w3.org/2000/svg" width="29.000000pt" height="28.000000pt" viewBox="0 0 29.000000 28.000000" preserveAspectRatio="xMidYMid meet"> <g transform="translate(0.000000,28.000000) scale(0.100000,-0.100000)" fill="#e81528" stroke="none"> <path d="M68 252 c-40 -24 -61 -75 -55 -131 4 -36 13 -52 41 -78 31 -29 43 -33 90 -33 44 0 60 5 85 26 63 53 66 150 5 203 -29 26 -43 31 -87 31 -31 0 -63 -7 -79 -18z m77 -24 c-4 -18 -16 -41 -26 -51 -11 -10 -19 -26 -19 -36 0 -11 -7 -21 -15 -25 -22 -8 -20 49 3 72 9 9 25 30 35 45 23 36 30 34 22 -5z m55 -38 c11 -11 20 -28 20 -38 0 -10 7 -27 15 -38 23 -30 18 -37 -15 -17 -18 10 -30 26 -30 39 0 11 -9 29 -20 39 -11 10 -20 22 -20 27 0 15 30 8 50 -12z m-30 -35 c10 -12 10 -18 0 -30 -26 -32 -68 -8 -54 30 4 8 14 15 24 15 10 0 23 -7 30 -15z m-43 -56 c8 -8 17 -8 33 1 28 15 55 -4 30 -21 -13 -8 -37 -8 -140 1 -8 1 -1 8 15 15 37 17 48 18 62 4z"/> </g> </svg>